<svg width="377" height="100" viewBox="0 0 377 100" fill="none" xmlns="http://www.w3.org/2000/svg">
<path d="M57.551 13.4615H7.67347V63.4615H0V5.76923H65.2245V63.4615H57.551V13.4615Z" fill="#EDF5FA"/>
<path fill-rule="evenodd" clip-rule="evenodd" d="M32.6923 19.2308C35.8786 19.2308 38.4615 16.6478 38.4615 13.4615C38.4615 10.2753 35.8786 7.69231 32.6923 7.69231C29.506 7.69231 26.9231 10.2753 26.9231 13.4615C26.9231 16.6478 29.506 19.2308 32.6923 19.2308ZM46.1538 13.4615C46.1538 19.5597 42.099 24.7107 36.5385 26.3656V32.6923H50V40.3846H36.5385V81.49C36.562 81.4846 36.5855 81.4793 36.609 81.474C39.3435 80.8618 42.6519 80.9024 45.109 80.9325C45.5956 80.9385 46.0487 80.9441 46.4575 80.9441C49.7177 80.9441 52.7336 80.7335 54.8696 79.7875C55.8516 79.3526 56.4914 78.8257 56.9058 78.2122C57.3118 77.6111 57.6923 76.6458 57.6923 75V68.2692H50V60.5769H65.3846V61.5385V68.2692V75C65.3846 77.8997 64.6898 80.4309 63.2802 82.5177C61.8791 84.5922 59.9631 85.9446 57.9846 86.8209C54.1996 88.4972 49.675 88.6364 46.4575 88.6364C45.845 88.6364 45.2477 88.631 44.6669 88.6258L44.665 88.6257C42.2161 88.6037 40.0592 88.5843 38.2898 88.9805C37.2686 89.2091 36.8534 89.491 36.7193 89.6205L36.7159 89.6234C36.6886 89.6452 36.5385 89.7649 36.5385 90.3846V93.2692H28.8462V90.3846C28.8462 89.7649 28.696 89.6452 28.6687 89.6234L28.6653 89.6205C28.5313 89.491 28.116 89.2091 27.0949 88.9805C25.3254 88.5843 23.1685 88.6037 20.7196 88.6257L20.7177 88.6258C20.1369 88.631 19.5396 88.6364 18.9271 88.6364C15.7096 88.6364 11.185 88.4972 7.39998 86.8209C5.42147 85.9446 3.50555 84.5922 2.10439 82.5177C0.69485 80.4309 0 77.8997 0 75V68.2692V61.5385V60.5769H15.3846V68.2692H7.69231V75C7.69231 76.6458 8.07286 77.6111 8.47886 78.2122C8.89324 78.8257 9.53298 79.3526 10.515 79.7875C12.651 80.7335 15.6669 80.9441 18.9271 80.9441C19.3359 80.9441 19.7891 80.9385 20.2756 80.9325C22.7327 80.9024 26.0411 80.8618 28.7756 81.474C28.7991 81.4793 28.8226 81.4846 28.8462 81.49V40.3846H15.3846V32.6923H28.8462V26.3656C23.2856 24.7107 19.2308 19.5597 19.2308 13.4615C19.2308 6.02694 25.2577 0 32.6923 0C40.1269 0 46.1538 6.02694 46.1538 13.4615Z" fill="#C5DDEE"/>
<path d="M89.8635 63.4615V38.2867H96.6814V48.1206H105.706V38.2867H112.524V63.4615H105.706V53.6276H96.6814V63.4615H89.8635Z" fill="#C5DDEE"/>
<path d="M122.285 63.4615H114.928L123.217 38.2867H132.536L140.826 63.4615H133.468L127.975 45.2196H127.779L122.285 63.4615ZM120.912 53.5293H134.744V58.6429H120.912V53.5293Z" fill="#C5DDEE"/>
<path d="M150.553 38.2867L154.673 45.613H154.869L159.038 38.2867H166.641L159.136 50.8741L166.935 63.4615H159.136L154.869 55.9877H154.673L150.406 63.4615H142.656L150.356 50.8741L142.901 38.2867H150.553Z" fill="#C5DDEE"/>
<path d="M192.223 50.8741C192.223 53.6768 191.679 56.041 190.592 57.9668C189.505 59.8844 188.037 61.339 186.19 62.3306C184.342 63.314 182.282 63.8057 180.01 63.8057C177.721 63.8057 175.653 63.3099 173.805 62.3183C171.966 61.3185 170.502 59.8598 169.415 57.9422C168.336 56.0164 167.797 53.6604 167.797 50.8741C167.797 48.0714 168.336 45.7113 169.415 43.7937C170.502 41.8679 171.966 40.4133 173.805 39.4299C175.653 38.4383 177.721 37.9425 180.01 37.9425C182.282 37.9425 184.342 38.4383 186.19 39.4299C188.037 40.4133 189.505 41.8679 190.592 43.7937C191.679 45.7113 192.223 48.0714 192.223 50.8741ZM185.209 50.8741C185.209 49.3662 185.009 48.096 184.608 47.0635C184.216 46.0227 183.631 45.236 182.855 44.7033C182.086 44.1625 181.138 43.892 180.01 43.892C178.882 43.892 177.929 44.1625 177.153 44.7033C176.384 45.236 175.8 46.0227 175.399 47.0635C175.007 48.096 174.811 49.3662 174.811 50.8741C174.811 52.382 175.007 53.6563 175.399 54.697C175.8 55.7296 176.384 56.5163 177.153 57.0572C177.929 57.5898 178.882 57.8562 180.01 57.8562C181.138 57.8562 182.086 57.5898 182.855 57.0572C183.631 56.5163 184.216 55.7296 184.608 54.697C185.009 53.6563 185.209 52.382 185.209 50.8741Z" fill="#C5DDEE"/>
<path d="M194.544 69.5094V58.2004H196.309C196.898 57.8398 197.429 57.3317 197.903 56.6761C198.386 56.0205 198.795 55.0822 199.13 53.8612C199.473 52.6401 199.726 51.0052 199.89 48.9565L200.724 38.2867H218.48V58.2004H221.128V69.5094H214.556V63.4615H201.116V69.5094H194.544ZM204.108 58.2004H211.907V43.7937H206.855L206.463 48.9565C206.348 50.4971 206.172 51.8452 205.935 53.0007C205.706 54.148 205.433 55.1478 205.114 56C204.803 56.8441 204.468 57.5776 204.108 58.2004Z" fill="#C5DDEE"/>
<path d="M238.909 63.4615L231.208 53.2834H230.251V63.4615H223.434V38.2867H230.251V47.7764H231.134L238.345 38.2867H246.928L237.364 50.3824L247.468 63.4615H238.909Z" fill="#C5DDEE"/>
<path d="M255.821 63.4615H248.464L256.753 38.2867H266.073L274.362 63.4615H267.005L261.511 45.2196H261.315L255.821 63.4615ZM254.448 53.5293H268.28V58.6429H254.448V53.5293Z" fill="#C5DDEE"/>
<path d="M283.709 63.4615V58.5446L293.077 50.7758C293.699 50.2595 294.23 49.776 294.671 49.3253C295.121 48.8663 295.464 48.3951 295.701 47.9116C295.947 47.4281 296.069 46.8914 296.069 46.3013C296.069 45.6539 295.93 45.1008 295.652 44.6419C295.383 44.1829 295.007 43.8306 294.524 43.5847C294.042 43.3307 293.486 43.2036 292.857 43.2036C292.227 43.2036 291.671 43.3307 291.189 43.5847C290.715 43.8388 290.347 44.2116 290.085 44.7033C289.824 45.195 289.693 45.7932 289.693 46.498H283.218C283.218 44.7279 283.615 43.2037 284.408 41.9252C285.201 40.6468 286.321 39.6634 287.768 38.9751C289.215 38.2867 290.911 37.9425 292.857 37.9425C294.868 37.9425 296.609 38.2662 298.08 38.9136C299.56 39.5528 300.7 40.4543 301.501 41.6179C302.311 42.7816 302.715 44.1461 302.715 45.7113C302.715 46.6783 302.515 47.6412 302.115 48.6C301.714 49.5506 300.995 50.6037 299.956 51.7592C298.918 52.9146 297.443 54.2914 295.53 55.8894L293.175 57.8562V58.0037H302.985V63.4615H283.709Z" fill="#C5DDEE"/>
<path d="M316.97 64.1499C314.69 64.1417 312.719 63.6131 311.06 62.5642C309.4 61.5152 308.121 60.0033 307.222 58.0283C306.323 56.0533 305.877 53.685 305.885 50.9233C305.893 48.1534 306.343 45.8014 307.234 43.8674C308.133 41.9334 309.409 40.4624 311.06 39.4545C312.719 38.4465 314.69 37.9425 316.97 37.9425C319.251 37.9425 321.221 38.4506 322.881 39.4668C324.54 40.4747 325.82 41.9457 326.719 43.8797C327.618 45.8137 328.064 48.1616 328.055 50.9233C328.055 53.7014 327.606 56.0779 326.707 58.0529C325.807 60.0278 324.528 61.5398 322.868 62.5888C321.217 63.6295 319.251 64.1499 316.97 64.1499ZM316.97 58.5937C318.148 58.5937 319.112 57.9791 319.864 56.7499C320.624 55.5124 321.001 53.5702 320.992 50.9233C320.992 49.1941 320.821 47.7805 320.477 46.6824C320.134 45.5843 319.66 44.773 319.055 44.2485C318.45 43.7158 317.755 43.4495 316.97 43.4495C315.793 43.4495 314.833 44.0477 314.089 45.2442C313.345 46.4406 312.965 48.3337 312.948 50.9233C312.94 52.6852 313.108 54.1357 313.451 55.2748C313.794 56.4057 314.269 57.2416 314.873 57.7824C315.487 58.3233 316.186 58.5937 316.97 58.5937Z" fill="#C5DDEE"/>
<path d="M341.066 63.8057C339.087 63.8057 337.33 63.4656 335.793 62.7854C334.264 62.0971 333.063 61.1505 332.188 59.9459C331.313 58.7412 330.872 57.3563 330.864 55.7911H337.73C337.739 56.2746 337.886 56.7089 338.172 57.0941C338.466 57.471 338.867 57.766 339.374 57.9791C339.88 58.1922 340.461 58.2987 341.115 58.2987C341.744 58.2987 342.3 58.1881 342.782 57.9668C343.265 57.7374 343.641 57.4219 343.911 57.0203C344.18 56.6188 344.311 56.1598 344.303 55.6436C344.311 55.1355 344.156 54.6847 343.837 54.2914C343.526 53.898 343.089 53.5907 342.525 53.3695C341.961 53.1482 341.311 53.0376 340.575 53.0376H338.025V48.3173H340.575C341.254 48.3173 341.851 48.2067 342.366 47.9854C342.889 47.7641 343.293 47.4568 343.579 47.0635C343.874 46.6701 344.017 46.2194 344.009 45.7113C344.017 45.2196 343.898 44.7853 343.653 44.4083C343.408 44.0313 343.064 43.7363 342.623 43.5233C342.19 43.3102 341.687 43.2036 341.115 43.2036C340.493 43.2036 339.938 43.3143 339.447 43.5355C338.965 43.7568 338.585 44.0641 338.307 44.4575C338.029 44.8508 337.886 45.3016 337.878 45.8096H331.354C331.362 44.269 331.783 42.9086 332.617 41.7286C333.459 40.5485 334.612 39.6225 336.075 38.9505C337.538 38.2785 339.218 37.9425 341.115 37.9425C342.97 37.9425 344.61 38.258 346.032 38.889C347.463 39.52 348.578 40.3887 349.38 41.495C350.189 42.5931 350.589 43.851 350.581 45.2688C350.598 46.6783 350.115 47.8338 349.134 48.7352C348.161 49.6367 346.927 50.1693 345.431 50.3332V50.5299C347.458 50.7512 348.983 51.374 350.005 52.3984C351.027 53.4145 351.53 54.6929 351.513 56.2336C351.521 57.7087 351.08 59.0158 350.189 60.1549C349.306 61.294 348.076 62.1872 346.498 62.8346C344.928 63.482 343.118 63.8057 341.066 63.8057Z" fill="#C5DDEE"/>
<path d="M365.495 64.1499C363.215 64.1417 361.244 63.6131 359.585 62.5642C357.925 61.5152 356.646 60.0033 355.747 58.0283C354.848 56.0533 354.402 53.685 354.41 50.9233C354.418 48.1534 354.868 45.8014 355.759 43.8674C356.658 41.9334 357.934 40.4624 359.585 39.4545C361.244 38.4465 363.215 37.9425 365.495 37.9425C367.776 37.9425 369.746 38.4506 371.406 39.4668C373.065 40.4747 374.345 41.9457 375.244 43.8797C376.143 45.8137 376.589 48.1616 376.58 50.9233C376.58 53.7014 376.131 56.0779 375.232 58.0529C374.332 60.0278 373.053 61.5398 371.393 62.5888C369.742 63.6295 367.776 64.1499 365.495 64.1499ZM365.495 58.5937C366.672 58.5937 367.637 57.9791 368.389 56.7499C369.149 55.5124 369.525 53.5702 369.517 50.9233C369.517 49.1941 369.346 47.7805 369.002 46.6824C368.659 45.5843 368.185 44.773 367.58 44.2485C366.975 43.7158 366.28 43.4495 365.495 43.4495C364.318 43.4495 363.358 44.0477 362.614 45.2442C361.87 46.4406 361.49 48.3337 361.473 50.9233C361.465 52.6852 361.633 54.1357 361.976 55.2748C362.319 56.4057 362.793 57.2416 363.398 57.7824C364.012 58.3233 364.711 58.5937 365.495 58.5937Z" fill="#C5DDEE"/>
</svg>
