<svg width="321" height="84" viewBox="0 0 321 84" fill="none" xmlns="http://www.w3.org/2000/svg">
<path d="M48.9796 11.3077H6.53061V53.3077H0V4.84613H55.5102V53.3077H48.9796V11.3077Z" fill="#EDF5FA"/>
<path fill-rule="evenodd" clip-rule="evenodd" d="M27.7885 16.3462C30.4968 16.3462 32.6923 14.1506 32.6923 11.4423C32.6923 8.73399 30.4968 6.53846 27.7885 6.53846C25.0801 6.53846 22.8846 8.73399 22.8846 11.4423C22.8846 14.1506 25.0801 16.3462 27.7885 16.3462ZM39.2308 11.4423C39.2308 16.6257 35.7842 21.0041 31.0577 22.4108V27.7885H42.5V34.3269H31.0577V69.2665C31.0777 69.2619 31.0977 69.2574 31.1177 69.2529C33.442 68.7325 36.2541 68.767 38.3426 68.7926C38.7562 68.7977 39.1414 68.8025 39.4889 68.8025C42.26 68.8025 44.8236 68.6235 46.6392 67.8194C47.4739 67.4497 48.0177 67.0018 48.3699 66.4803C48.715 65.9694 49.0385 65.1489 49.0385 63.75V58.0288H42.5V51.4904H55.5769V52.3077V58.0288V63.75C55.5769 66.2147 54.9863 68.3662 53.7882 70.1401C52.5972 71.9033 50.9687 73.0529 49.2869 73.7978C46.0696 75.2227 42.2238 75.3409 39.4889 75.3409C38.9683 75.3409 38.4606 75.3363 37.9668 75.3319L37.9652 75.3319C35.8837 75.3132 34.0503 75.2967 32.5463 75.6334C31.6783 75.8278 31.3254 76.0673 31.2114 76.1775L31.2085 76.1799C31.1853 76.1984 31.0577 76.3001 31.0577 76.8269V79.2788H24.5192V76.8269C24.5192 76.3001 24.3916 76.1984 24.3684 76.1799L24.3655 76.1775C24.2516 76.0673 23.8986 75.8278 23.0306 75.6334C21.5266 75.2967 19.6932 75.3132 17.6117 75.3319L17.6101 75.3319C17.1163 75.3363 16.6086 75.3409 16.0881 75.3409C13.3532 75.3409 9.50728 75.2227 6.28999 73.7978C4.60825 73.0529 2.97972 71.9033 1.78873 70.1401C0.590623 68.3662 0 66.2147 0 63.75V58.0288V52.3077V51.4904H13.0769V58.0288H6.53846V63.75C6.53846 65.1489 6.86193 65.9694 7.20703 66.4803C7.55925 67.0018 8.10304 67.4497 8.93775 67.8194C10.7534 68.6235 13.3169 68.8025 16.0881 68.8025C16.4355 68.8025 16.8207 68.7977 17.2343 68.7926C19.3228 68.767 22.1349 68.7325 24.4593 69.2529C24.4792 69.2574 24.4992 69.2619 24.5192 69.2665V34.3269H13.0769V27.7885H24.5192V22.4108C19.7928 21.0041 16.3462 16.6257 16.3462 11.4423C16.3462 5.1229 21.469 0 27.7885 0C34.1079 0 39.2308 5.1229 39.2308 11.4423Z" fill="#C5DDEE"/>
<path d="M76.4796 53.3077V32.1608H82.282V40.4213H89.9629V32.1608H95.7653V53.3077H89.9629V45.0472H82.282V53.3077H76.4796Z" fill="#C5DDEE"/>
<path d="M104.072 53.3077H97.8107L104.865 32.1608H112.797L119.852 53.3077H113.59L108.915 37.9845H108.748L104.072 53.3077ZM102.903 44.9646H114.675V49.26H102.903V44.9646Z" fill="#C5DDEE"/>
<path d="M128.13 32.1608L131.636 38.3149H131.803L135.352 32.1608H141.822L135.435 42.7342L142.072 53.3077H135.435L131.803 47.0297H131.636L128.005 53.3077H121.409L127.963 42.7342L121.618 32.1608H128.13Z" fill="#C5DDEE"/>
<path d="M163.594 42.7342C163.594 45.0885 163.131 47.0744 162.206 48.6921C161.281 50.3029 160.032 51.5248 158.459 52.3577C156.887 53.1838 155.134 53.5968 153.2 53.5968C151.252 53.5968 149.491 53.1803 147.919 52.3474C146.354 51.5076 145.108 50.2823 144.183 48.6715C143.265 47.0538 142.805 45.0747 142.805 42.7342C142.805 40.38 143.265 38.3975 144.183 36.7867C145.108 35.169 146.354 33.9472 147.919 33.1211C149.491 32.2882 151.252 31.8717 153.2 31.8717C155.134 31.8717 156.887 32.2882 158.459 33.1211C160.032 33.9472 161.281 35.169 162.206 36.7867C163.131 38.3975 163.594 40.38 163.594 42.7342ZM157.625 42.7342C157.625 41.4676 157.454 40.4007 157.113 39.5333C156.779 38.6591 156.282 37.9982 155.621 37.5508C154.967 37.0965 154.16 36.8693 153.2 36.8693C152.24 36.8693 151.429 37.0965 150.768 37.5508C150.114 37.9982 149.617 38.6591 149.276 39.5333C148.942 40.4007 148.775 41.4676 148.775 42.7342C148.775 44.0009 148.942 45.0713 149.276 45.9455C149.617 46.8129 150.114 47.4737 150.768 47.928C151.429 48.3755 152.24 48.5992 153.2 48.5992C154.16 48.5992 154.967 48.3755 155.621 47.928C156.282 47.4737 156.779 46.8129 157.113 45.9455C157.454 45.0713 157.625 44.0009 157.625 42.7342Z" fill="#C5DDEE"/>
<path d="M165.569 58.3879V48.8883H167.072C167.573 48.5854 168.025 48.1586 168.428 47.6079C168.839 47.0572 169.187 46.269 169.472 45.2434C169.764 44.2177 169.98 42.8444 170.119 41.1235L170.829 32.1608H185.94V48.8883H188.194V58.3879H182.601V53.3077H171.163V58.3879H165.569ZM173.709 48.8883H180.346V36.7867H176.047L175.713 41.1235C175.615 42.4176 175.466 43.55 175.264 44.5206C175.069 45.4843 174.836 46.3241 174.565 47.04C174.3 47.7491 174.015 48.3651 173.709 48.8883Z" fill="#C5DDEE"/>
<path d="M203.326 53.3077L196.773 44.7581H195.959V53.3077H190.156V32.1608H195.959V40.1322H196.71L202.846 32.1608H210.152L202.011 42.3212L210.611 53.3077H203.326Z" fill="#C5DDEE"/>
<path d="M217.72 53.3077H211.459L218.513 32.1608H226.445L233.499 53.3077H227.238L222.563 37.9845H222.396L217.72 53.3077ZM216.551 44.9646H228.323V49.26H216.551V44.9646Z" fill="#C5DDEE"/>
<path d="M241.454 53.3077V49.1774L249.427 42.6516C249.956 42.218 250.408 41.8118 250.784 41.4332C251.167 41.0477 251.459 40.6519 251.661 40.2458C251.869 39.8396 251.974 39.3887 251.974 38.8931C251.974 38.3493 251.856 37.8847 251.619 37.4992C251.389 37.1137 251.069 36.8177 250.659 36.6112C250.248 36.3978 249.775 36.2911 249.24 36.2911C248.704 36.2911 248.231 36.3978 247.82 36.6112C247.417 36.8246 247.104 37.1378 246.881 37.5508C246.658 37.9638 246.547 38.4663 246.547 39.0583H241.037C241.037 37.5714 241.374 36.2911 242.049 35.2172C242.724 34.1433 243.677 33.3173 244.909 32.7391C246.14 32.1608 247.584 31.8717 249.24 31.8717C250.951 31.8717 252.433 32.1436 253.685 32.6874C254.945 33.2244 255.915 33.9816 256.597 34.9591C257.286 35.9366 257.63 37.0827 257.63 38.3975C257.63 39.2098 257.46 40.0186 257.119 40.824C256.778 41.6225 256.166 42.5071 255.282 43.4777C254.398 44.4483 253.143 45.6048 251.515 46.9471L249.511 48.5992V48.7231H257.86V53.3077H241.454Z" fill="#C5DDEE"/>
<path d="M269.762 53.8859C267.821 53.879 266.144 53.435 264.732 52.5539C263.319 51.6728 262.231 50.4027 261.465 48.7438C260.7 47.0848 260.321 45.0954 260.328 42.7756C260.335 40.4488 260.717 38.4732 261.476 36.8487C262.241 35.2241 263.326 33.9885 264.732 33.1418C266.144 32.2951 267.821 31.8717 269.762 31.8717C271.703 31.8717 273.38 32.2985 274.792 33.1521C276.204 33.9988 277.293 35.2344 278.059 36.859C278.824 38.4835 279.203 40.4557 279.196 42.7756C279.196 45.1091 278.813 47.1054 278.048 48.7644C277.283 50.4234 276.194 51.6934 274.782 52.5746C273.376 53.4488 271.703 53.8859 269.762 53.8859ZM269.762 49.2187C270.764 49.2187 271.585 48.7025 272.225 47.6699C272.872 46.6304 273.192 44.999 273.185 42.7756C273.185 41.3231 273.039 40.1356 272.747 39.2132C272.454 38.2908 272.051 37.6093 271.536 37.1687C271.021 36.7213 270.43 36.4976 269.762 36.4976C268.76 36.4976 267.943 37.0001 267.309 38.0051C266.676 39.0101 266.353 40.6003 266.339 42.7756C266.332 44.2556 266.475 45.474 266.767 46.4308C267.059 47.3808 267.463 48.0829 267.977 48.5372C268.499 48.9916 269.094 49.2187 269.762 49.2187Z" fill="#C5DDEE"/>
<path d="M290.269 53.5968C288.585 53.5968 287.089 53.3111 285.781 52.7398C284.48 52.1615 283.457 51.3665 282.713 50.3545C281.969 49.3426 281.593 48.1793 281.586 46.8645H287.43C287.437 47.2706 287.562 47.6355 287.806 47.959C288.056 48.2757 288.397 48.5235 288.828 48.7025C289.26 48.8814 289.754 48.9709 290.31 48.9709C290.846 48.9709 291.319 48.878 291.73 48.6921C292.14 48.4994 292.46 48.2344 292.69 47.8971C292.919 47.5598 293.031 47.1743 293.024 46.7406C293.031 46.3138 292.899 45.9352 292.627 45.6048C292.363 45.2743 291.991 45.0162 291.511 44.8303C291.03 44.6445 290.477 44.5516 289.851 44.5516H287.681V40.5865H289.851C290.429 40.5865 290.937 40.4936 291.375 40.3077C291.82 40.1219 292.165 39.8637 292.408 39.5333C292.658 39.2029 292.78 38.8243 292.773 38.3975C292.78 37.9845 292.679 37.6196 292.471 37.303C292.262 36.9863 291.97 36.7385 291.594 36.5595C291.225 36.3806 290.797 36.2911 290.31 36.2911C289.782 36.2911 289.309 36.384 288.891 36.5699C288.481 36.7557 288.157 37.0139 287.921 37.3443C287.684 37.6747 287.562 38.0533 287.555 38.4801H282.003C282.01 37.186 282.369 36.0433 283.078 35.052C283.795 34.0607 284.776 33.2829 286.021 32.7184C287.267 32.1539 288.696 31.8717 290.31 31.8717C291.89 31.8717 293.285 32.1367 294.495 32.6668C295.713 33.1968 296.662 33.9265 297.344 34.8558C298.033 35.7782 298.374 36.8349 298.367 38.0258C298.381 39.2098 297.97 40.1804 297.136 40.9376C296.308 41.6948 295.257 42.1422 293.984 42.2799V42.4451C295.709 42.631 297.007 43.1542 297.877 44.0146C298.746 44.8682 299.174 45.9421 299.16 47.2362C299.167 48.4753 298.791 49.5732 298.033 50.5301C297.282 51.4869 296.235 52.2373 294.892 52.7811C293.556 53.3249 292.015 53.5968 290.269 53.5968Z" fill="#C5DDEE"/>
<path d="M311.06 53.8859C309.119 53.879 307.442 53.435 306.03 52.5539C304.617 51.6728 303.528 50.4027 302.763 48.7438C301.998 47.0848 301.619 45.0954 301.626 42.7756C301.633 40.4488 302.015 38.4732 302.774 36.8487C303.539 35.2241 304.624 33.9885 306.03 33.1418C307.442 32.2951 309.119 31.8717 311.06 31.8717C313.001 31.8717 314.678 32.2985 316.09 33.1521C317.502 33.9988 318.591 35.2344 319.356 36.859C320.122 38.4835 320.501 40.4557 320.494 42.7756C320.494 45.1091 320.111 47.1054 319.346 48.7644C318.581 50.4234 317.492 51.6934 316.079 52.5746C314.674 53.4488 313.001 53.8859 311.06 53.8859ZM311.06 49.2187C312.062 49.2187 312.883 48.7025 313.523 47.6699C314.17 46.6304 314.49 44.999 314.483 42.7756C314.483 41.3231 314.337 40.1356 314.044 39.2132C313.752 38.2908 313.349 37.6093 312.834 37.1687C312.319 36.7213 311.728 36.4976 311.06 36.4976C310.058 36.4976 309.24 37.0001 308.607 38.0051C307.974 39.0101 307.651 40.6003 307.637 42.7756C307.63 44.2556 307.772 45.474 308.065 46.4308C308.357 47.3808 308.76 48.0829 309.275 48.5372C309.797 48.9916 310.392 49.2187 311.06 49.2187Z" fill="#C5DDEE"/>
</svg>
