<svg width="24" height="24" viewBox="0 0 24 24" fill="none" xmlns="http://www.w3.org/2000/svg">
<path d="M19.496 3H4.46954C3.12108 3 2 4.12111 2 5.5044V18.0264C2 19.4097 3.12111 20.5308 4.46918 20.5308H19.4956C20.8789 20.5308 22 19.4097 22 18.0264V5.5044C22.0004 4.12111 20.9125 3 19.496 3ZM6.34784 5.5044C7.38521 5.5044 8.22614 6.34533 8.22614 7.3827C8.22614 8.42007 7.42004 9.26101 6.34784 9.26101C5.27564 9.26101 4.46954 8.42007 4.46954 7.3827C4.46954 6.34533 5.3453 5.5044 6.34784 5.5044ZM19.4568 17.6977C19.3473 17.9012 19.1359 18.0264 18.9051 18.0264H5.20951C4.9739 18.0264 4.75833 17.8942 4.6515 17.684C4.54467 17.474 4.56482 17.2219 4.7037 17.0313L7.44289 13.2747C7.56091 13.1115 7.74874 13.0176 7.94831 13.0176C8.14788 13.0176 8.33634 13.1131 8.45428 13.2749L9.72448 15.0166L13.3754 9.57343C13.4932 9.36666 13.6889 9.26101 13.8963 9.26101C14.1037 9.26101 14.3013 9.36556 14.4171 9.53982L19.4259 17.053C19.5546 17.2438 19.5664 17.4903 19.4568 17.6977Z" fill="#028AF3"/>
</svg>
