<svg width="24" height="24" viewBox="0 0 24 24" fill="none" xmlns="http://www.w3.org/2000/svg">
<path d="M11.4027 20.7682C9.41685 18.3544 5 12.5043 5 9.21829C5 5.23147 8.27022 1.99961 12.3043 1.99961C16.337 1.99961 19.6087 5.23147 19.6087 9.21829C19.6087 12.5043 15.1576 18.3544 13.206 20.7682C12.738 21.3434 11.8707 21.3434 11.4027 20.7682ZM12.3043 11.6245C13.6473 11.6245 14.7391 10.5455 14.7391 9.21829C14.7391 7.89111 13.6473 6.81206 12.3043 6.81206C10.9614 6.81206 9.86957 7.89111 9.86957 9.21829C9.86957 10.5455 10.9614 11.6245 12.3043 11.6245Z" fill="#028AF3"/>
</svg>
