<svg width="153" height="40" viewBox="0 0 153 40" fill="none" xmlns="http://www.w3.org/2000/svg">
<path d="M23.2653 5.38466H3.10204V25.3847H0V2.30774H26.3673V25.3847H23.2653V5.38466Z" fill="#CFE3F1"/>
<path fill-rule="evenodd" clip-rule="evenodd" d="M13.1837 7.7551C14.4686 7.7551 15.5102 6.71348 15.5102 5.42857C15.5102 4.14366 14.4686 3.10204 13.1837 3.10204C11.8988 3.10204 10.8571 4.14366 10.8571 5.42857C10.8571 6.71348 11.8988 7.7551 13.1837 7.7551ZM18.6122 5.42857C18.6122 7.88773 16.9771 9.96497 14.7347 10.6323V13.1837H20.1633V16.2857H14.7347V32.8621C14.7442 32.8599 14.7537 32.8578 14.7632 32.8557C15.8659 32.6087 17.2 32.6251 18.1909 32.6373C18.3871 32.6397 18.5699 32.6419 18.7347 32.6419C20.0494 32.6419 21.2656 32.557 22.127 32.1755C22.523 32.0001 22.781 31.7877 22.9481 31.5403C23.1118 31.2979 23.2653 30.9086 23.2653 30.2449V27.5306H20.1633V24.4286H26.3673V24.8163V27.5306V30.2449C26.3673 31.4142 26.0871 32.435 25.5187 33.2765C24.9537 34.1131 24.1811 34.6585 23.3832 35.0118C21.8568 35.6879 20.0322 35.744 18.7347 35.744C18.4877 35.744 18.2468 35.7418 18.0126 35.7397L18.0118 35.7397C17.0243 35.7308 16.1545 35.723 15.4409 35.8827C15.0291 35.975 14.8617 36.0886 14.8076 36.1409L14.8062 36.142C14.7952 36.1508 14.7347 36.1991 14.7347 36.449V37.6122H11.6327V36.449C11.6327 36.1991 11.5721 36.1508 11.5611 36.142L11.5597 36.1409C11.5057 36.0886 11.3382 35.975 10.9264 35.8827C10.2129 35.723 9.34306 35.7308 8.3555 35.7397L8.35474 35.7397C8.1205 35.7418 7.87963 35.744 7.63265 35.744C6.33514 35.744 4.51054 35.6879 2.98416 35.0118C2.18629 34.6585 1.41367 34.1131 0.848629 33.2765C0.280209 32.435 0 31.4142 0 30.2449V27.5306V24.8163V24.4286H6.20408V27.5306H3.10204V30.2449C3.10204 30.9086 3.25551 31.2979 3.41923 31.5403C3.58633 31.7877 3.84432 32.0001 4.24033 32.1755C5.10171 32.557 6.31792 32.6419 7.63265 32.6419C7.79748 32.6419 7.98024 32.6397 8.17646 32.6373C9.16731 32.6251 10.5015 32.6087 11.6042 32.8557C11.6137 32.8578 11.6231 32.8599 11.6327 32.8621V16.2857H6.20408V13.1837H11.6327V10.6323C9.39027 9.96497 7.7551 7.88773 7.7551 5.42857C7.7551 2.43045 10.1856 0 13.1837 0C16.1818 0 18.6122 2.43045 18.6122 5.42857Z" fill="#028AF3"/>
<path d="M36.3278 25.3846V15.3147H39.084V19.2482H42.7324V15.3147H45.4885V25.3846H42.7324V21.451H39.084V25.3846H36.3278Z" fill="#028AF3"/>
<path d="M49.4344 25.3846H46.4601L49.8111 15.3147H53.5785L56.9295 25.3846H53.9553L51.7345 18.0878H51.6552L49.4344 25.3846ZM48.8792 21.4117H54.4708V23.4572H48.8792V21.4117Z" fill="#028AF3"/>
<path d="M60.8617 15.3147L62.5273 18.2452H62.6066L64.292 15.3147H67.3654L64.3317 20.3496L67.4844 25.3846H64.3317L62.6066 22.3951H62.5273L60.8022 25.3846H57.6694L60.7824 20.3496L57.7685 15.3147H60.8617Z" fill="#028AF3"/>
<path d="M77.7072 20.3496C77.7072 21.4707 77.4874 22.4164 77.0479 23.1867C76.6084 23.9538 76.0152 24.5356 75.2683 24.9322C74.5214 25.3256 73.6886 25.5223 72.7699 25.5223C71.8446 25.5223 71.0085 25.324 70.2616 24.9273C69.5181 24.5274 68.9265 23.9439 68.487 23.1769C68.0508 22.4066 67.8326 21.4642 67.8326 20.3496C67.8326 19.2286 68.0508 18.2845 68.487 17.5175C68.9265 16.7472 69.5181 16.1653 70.2616 15.772C71.0085 15.3753 71.8446 15.177 72.7699 15.177C73.6886 15.177 74.5214 15.3753 75.2683 15.772C76.0152 16.1653 76.6084 16.7472 77.0479 17.5175C77.4874 18.2845 77.7072 19.2286 77.7072 20.3496ZM74.8717 20.3496C74.8717 19.7465 74.7908 19.2384 74.6288 18.8254C74.4702 18.4091 74.2339 18.0944 73.92 17.8813C73.6093 17.665 73.226 17.5568 72.7699 17.5568C72.3139 17.5568 71.9289 17.665 71.6149 17.8813C71.3043 18.0944 71.068 18.4091 70.906 18.8254C70.7474 19.2384 70.6681 19.7465 70.6681 20.3496C70.6681 20.9528 70.7474 21.4625 70.906 21.8788C71.068 22.2918 71.3043 22.6065 71.6149 22.8229C71.9289 23.0359 72.3139 23.1425 72.7699 23.1425C73.226 23.1425 73.6093 23.0359 73.92 22.8229C74.2339 22.6065 74.4702 22.2918 74.6288 21.8788C74.7908 21.4625 74.8717 20.9528 74.8717 20.3496Z" fill="#028AF3"/>
<path d="M78.6453 27.8037V23.2801H79.3591C79.5971 23.1359 79.8119 22.9327 80.0036 22.6704C80.1985 22.4082 80.3638 22.0329 80.4993 21.5445C80.6381 21.056 80.7405 20.4021 80.8066 19.5826L81.1437 15.3147H88.3216V23.2801H89.3923V27.8037H86.7353V25.3846H81.3023V27.8037H78.6453ZM82.5118 23.2801H85.6646V17.5175H83.6222L83.4636 19.5826C83.4173 20.1989 83.3463 20.7381 83.2505 21.2003C83.1579 21.6592 83.0472 22.0591 82.9183 22.4C82.7927 22.7376 82.6573 23.031 82.5118 23.2801Z" fill="#028AF3"/>
<path d="M96.5801 25.3846L93.467 21.3134H93.0804V25.3846H90.3242V15.3147H93.0804V19.1106H93.4373L96.3521 15.3147H99.822L95.9555 20.153L100.04 25.3846H96.5801Z" fill="#028AF3"/>
<path d="M103.417 25.3846H100.443L103.794 15.3147H107.561L110.912 25.3846H107.938L105.717 18.0878H105.638L103.417 25.3846ZM102.862 21.4117H108.454V23.4572H102.862V21.4117Z" fill="#028AF3"/>
<path d="M114.691 25.3846V23.4178L118.478 20.3103C118.729 20.1038 118.944 19.9104 119.122 19.7301C119.304 19.5465 119.443 19.3581 119.539 19.1647C119.638 18.9713 119.688 18.7565 119.688 18.5205C119.688 18.2616 119.631 18.0403 119.519 17.8567C119.41 17.6732 119.258 17.5322 119.063 17.4339C118.868 17.3323 118.643 17.2815 118.389 17.2815C118.134 17.2815 117.91 17.3323 117.715 17.4339C117.523 17.5355 117.374 17.6847 117.269 17.8813C117.163 18.078 117.11 18.3173 117.11 18.5992H114.493C114.493 17.8912 114.653 17.2815 114.973 16.7701C115.294 16.2587 115.747 15.8654 116.332 15.59C116.917 15.3147 117.602 15.177 118.389 15.177C119.202 15.177 119.906 15.3065 120.501 15.5654C121.099 15.8211 121.56 16.1817 121.884 16.6472C122.211 17.1126 122.374 17.6584 122.374 18.2845C122.374 18.6713 122.293 19.0565 122.131 19.44C121.97 19.8202 121.679 20.2415 121.259 20.7037C120.839 21.1659 120.243 21.7166 119.469 22.3558L118.518 23.1425V23.2015H122.483V25.3846H114.691Z" fill="#028AF3"/>
<path d="M128.137 25.66C127.215 25.6567 126.419 25.4452 125.748 25.0257C125.077 24.6061 124.56 24.0013 124.196 23.2113C123.833 22.4213 123.652 21.474 123.656 20.3693C123.659 19.2614 123.841 18.3206 124.201 17.547C124.565 16.7734 125.08 16.185 125.748 15.7818C126.419 15.3786 127.215 15.177 128.137 15.177C129.059 15.177 129.855 15.3802 130.526 15.7867C131.197 16.1899 131.714 16.7783 132.078 17.5519C132.441 18.3255 132.621 19.2646 132.618 20.3693C132.618 21.4805 132.436 22.4312 132.073 23.2211C131.709 24.0111 131.192 24.6159 130.521 25.0355C129.854 25.4518 129.059 25.66 128.137 25.66ZM128.137 23.4375C128.613 23.4375 129.003 23.1916 129.307 22.6999C129.614 22.205 129.766 21.4281 129.763 20.3693C129.763 19.6777 129.693 19.1122 129.555 18.673C129.416 18.2337 129.224 17.9092 128.98 17.6994C128.735 17.4863 128.454 17.3798 128.137 17.3798C127.661 17.3798 127.273 17.6191 126.972 18.0977C126.671 18.5763 126.518 19.3335 126.511 20.3693C126.508 21.0741 126.575 21.6543 126.714 22.1099C126.853 22.5623 127.045 22.8966 127.289 23.113C127.537 23.3293 127.82 23.4375 128.137 23.4375Z" fill="#028AF3"/>
<path d="M137.878 25.5223C137.078 25.5223 136.367 25.3862 135.746 25.1142C135.128 24.8388 134.642 24.4602 134.289 23.9784C133.935 23.4965 133.757 22.9425 133.753 22.3164H136.529C136.533 22.5098 136.592 22.6836 136.708 22.8376C136.827 22.9884 136.989 23.1064 137.194 23.1916C137.398 23.2769 137.633 23.3195 137.897 23.3195C138.152 23.3195 138.377 23.2752 138.572 23.1867C138.767 23.0949 138.919 22.9687 139.028 22.8081C139.137 22.6475 139.19 22.4639 139.186 22.2574C139.19 22.0542 139.127 21.8739 138.998 21.7166C138.872 21.5592 138.696 21.4363 138.468 21.3478C138.24 21.2593 137.977 21.215 137.679 21.215H136.648V19.3269H137.679C137.954 19.3269 138.195 19.2827 138.403 19.1942C138.615 19.1057 138.778 18.9827 138.894 18.8254C139.013 18.668 139.071 18.4878 139.067 18.2845C139.071 18.0878 139.023 17.9141 138.924 17.7633C138.824 17.6125 138.686 17.4945 138.507 17.4093C138.332 17.3241 138.129 17.2815 137.897 17.2815C137.646 17.2815 137.422 17.3257 137.223 17.4142C137.028 17.5027 136.875 17.6256 136.762 17.783C136.65 17.9403 136.592 18.1206 136.589 18.3239H133.952C133.955 17.7076 134.125 17.1635 134.462 16.6914C134.803 16.2194 135.269 15.849 135.86 15.5802C136.452 15.3114 137.131 15.177 137.897 15.177C138.648 15.177 139.31 15.3032 139.885 15.5556C140.464 15.808 140.915 16.1555 141.239 16.598C141.566 17.0373 141.728 17.5404 141.724 18.1075C141.731 18.6713 141.536 19.1335 141.139 19.4941C140.746 19.8547 140.247 20.0677 139.642 20.1333V20.212C140.462 20.3005 141.078 20.5496 141.491 20.9593C141.904 21.3658 142.108 21.8772 142.101 22.4934C142.104 23.0835 141.926 23.6063 141.566 24.0619C141.209 24.5176 140.711 24.8749 140.074 25.1338C139.439 25.3928 138.707 25.5223 137.878 25.5223Z" fill="#028AF3"/>
<path d="M147.753 25.66C146.831 25.6567 146.035 25.4452 145.364 25.0257C144.693 24.6061 144.176 24.0013 143.813 23.2113C143.449 22.4213 143.269 21.474 143.272 20.3693C143.276 19.2614 143.457 18.3206 143.818 17.547C144.181 16.7734 144.697 16.185 145.364 15.7818C146.035 15.3786 146.831 15.177 147.753 15.177C148.675 15.177 149.472 15.3802 150.143 15.7867C150.814 16.1899 151.331 16.7783 151.694 17.5519C152.058 18.3255 152.238 19.2646 152.235 20.3693C152.235 21.4805 152.053 22.4312 151.689 23.2211C151.326 24.0111 150.809 24.6159 150.138 25.0355C149.47 25.4518 148.675 25.66 147.753 25.66ZM147.753 23.4375C148.229 23.4375 148.619 23.1916 148.923 22.6999C149.231 22.205 149.383 21.4281 149.379 20.3693C149.379 19.6777 149.31 19.1122 149.171 18.673C149.032 18.2337 148.841 17.9092 148.596 17.6994C148.352 17.4863 148.071 17.3798 147.753 17.3798C147.278 17.3798 146.889 17.6191 146.589 18.0977C146.288 18.5763 146.134 19.3335 146.128 20.3693C146.124 21.0741 146.192 21.6543 146.331 22.1099C146.47 22.5623 146.661 22.8966 146.906 23.113C147.154 23.3293 147.436 23.4375 147.753 23.4375Z" fill="#028AF3"/>
</svg>
