<svg width="197" height="52" viewBox="0 0 197 52" fill="none" xmlns="http://www.w3.org/2000/svg">
<path d="M30 7H4V33H0V3H34V33H30V7Z" fill="#CFE3F1"/>
<path fill-rule="evenodd" clip-rule="evenodd" d="M17 10C18.6569 10 20 8.65685 20 7C20 5.34315 18.6569 4 17 4C15.3431 4 14 5.34315 14 7C14 8.65685 15.3431 10 17 10ZM24 7C24 10.171 21.8915 12.8496 19 13.7101V17H26V21H19V42.3748C19.0123 42.372 19.0245 42.3692 19.0367 42.3665C20.4586 42.0481 22.179 42.0692 23.4567 42.0849C23.7097 42.088 23.9453 42.0909 24.1579 42.0909C25.8532 42.0909 27.4215 41.9814 28.5322 41.4895C29.0428 41.2633 29.3755 40.9893 29.591 40.6703C29.8021 40.3578 30 39.8558 30 39V35.5H26V31.5H34V32V35.5V39C34 40.5078 33.6387 41.8241 32.9057 42.9092C32.1771 43.9879 31.1808 44.6912 30.152 45.1469C28.1838 46.0186 25.831 46.0909 24.1579 46.0909C23.8394 46.0909 23.5288 46.0881 23.2268 46.0854L23.2258 46.0854C21.9524 46.0739 20.8308 46.0638 19.9107 46.2699C19.3797 46.3888 19.1637 46.5353 19.0941 46.6027L19.0923 46.6042C19.0781 46.6155 19 46.6777 19 47V48.5H15V47C15 46.6777 14.9219 46.6155 14.9077 46.6042L14.9059 46.6027C14.8363 46.5353 14.6203 46.3888 14.0893 46.2699C13.1692 46.0638 12.0476 46.0739 10.7742 46.0854L10.7732 46.0854C10.4712 46.0881 10.1606 46.0909 9.8421 46.0909C8.16899 46.0909 5.81622 46.0186 3.84799 45.1469C2.81916 44.6912 1.82289 43.9879 1.09428 42.9092C0.361322 41.8241 0 40.5078 0 39V35.5V32V31.5H8V35.5H4V39C4 39.8558 4.19789 40.3578 4.40901 40.6703C4.62448 40.9893 4.95715 41.2633 5.4678 41.4895C6.57852 41.9814 8.1468 42.0909 9.8421 42.0909C10.0547 42.0909 10.2903 42.088 10.5433 42.0849C11.821 42.0692 13.5414 42.0481 14.9633 42.3665C14.9755 42.3692 14.9877 42.372 15 42.3748V21H8V17H15V13.7101C12.1085 12.8496 10 10.171 10 7C10 3.13401 13.134 0 17 0C20.866 0 24 3.13401 24 7Z" fill="#028AF3"/>
<path d="M46.8438 33V19.9091H50.3977V25.0227H55.1023V19.9091H58.6562V33H55.1023V27.8864H50.3977V33H46.8438Z" fill="#028AF3"/>
<path d="M63.7443 33H59.9091L64.2301 19.9091H69.0881L73.4091 33H69.5739L66.7102 23.5142H66.608L63.7443 33ZM63.0284 27.8352H70.2386V30.4943H63.0284V27.8352Z" fill="#028AF3"/>
<path d="M78.4796 19.9091L80.6273 23.7187H80.7296L82.9029 19.9091H86.8659L82.954 26.4545L87.0194 33H82.954L80.7296 29.1136H80.6273L78.4029 33H74.3631L78.3773 26.4545L74.4909 19.9091H78.4796Z" fill="#028AF3"/>
<path d="M100.201 26.4545C100.201 27.9119 99.918 29.1413 99.3512 30.1427C98.7844 31.1399 98.0195 31.8963 97.0565 32.4119C96.0934 32.9233 95.0195 33.179 93.8349 33.179C92.6417 33.179 91.5636 32.9212 90.6005 32.4055C89.6417 31.8856 88.8789 31.1271 88.3121 30.13C87.7496 29.1285 87.4684 27.9034 87.4684 26.4545C87.4684 24.9971 87.7496 23.7699 88.3121 22.7727C88.8789 21.7713 89.6417 21.0149 90.6005 20.5035C91.5636 19.9879 92.6417 19.7301 93.8349 19.7301C95.0195 19.7301 96.0934 19.9879 97.0565 20.5035C98.0195 21.0149 98.7844 21.7713 99.3512 22.7727C99.918 23.7699 100.201 24.9971 100.201 26.4545ZM96.5451 26.4545C96.5451 25.6704 96.4407 25.0099 96.2319 24.473C96.0273 23.9318 95.7227 23.5227 95.3178 23.2457C94.9173 22.9645 94.4229 22.8239 93.8349 22.8239C93.2468 22.8239 92.7504 22.9645 92.3455 23.2457C91.945 23.5227 91.6403 23.9318 91.4315 24.473C91.2269 25.0099 91.1246 25.6704 91.1246 26.4545C91.1246 27.2386 91.2269 27.9013 91.4315 28.4425C91.6403 28.9794 91.945 29.3885 92.3455 29.6697C92.7504 29.9467 93.2468 30.0852 93.8349 30.0852C94.4229 30.0852 94.9173 29.9467 95.3178 29.6697C95.7227 29.3885 96.0273 28.9794 96.2319 28.4425C96.4407 27.9013 96.5451 27.2386 96.5451 26.4545Z" fill="#028AF3"/>
<path d="M101.411 36.1449V30.2642H102.331C102.638 30.0767 102.915 29.8125 103.162 29.4716C103.414 29.1307 103.627 28.6427 103.802 28.0078C103.981 27.3729 104.113 26.5227 104.198 25.4574L104.633 19.9091H113.888V30.2642H115.269V36.1449H111.843V33H104.837V36.1449H101.411ZM106.397 30.2642H110.462V22.7727H107.829L107.624 25.4574C107.564 26.2585 107.473 26.9595 107.349 27.5604C107.23 28.1569 107.087 28.6768 106.921 29.12C106.759 29.5589 106.584 29.9403 106.397 30.2642Z" fill="#028AF3"/>
<path d="M124.537 33L120.523 27.7074H120.025V33H116.471V19.9091H120.025V24.8437H120.485L124.243 19.9091H128.718L123.732 26.1989L128.999 33H124.537Z" fill="#028AF3"/>
<path d="M133.354 33H129.518L133.839 19.9091H138.697L143.018 33H139.183L136.32 23.5142H136.217L133.354 33ZM132.638 27.8352H139.848V30.4943H132.638V27.8352Z" fill="#028AF3"/>
<path d="M147.891 33V30.4432L152.774 26.4034C153.098 26.1349 153.375 25.8835 153.605 25.6491C153.84 25.4105 154.019 25.1655 154.142 24.9141C154.27 24.6626 154.334 24.3835 154.334 24.0767C154.334 23.74 154.262 23.4524 154.117 23.2138C153.976 22.9751 153.78 22.7919 153.529 22.6641C153.277 22.5319 152.987 22.4659 152.659 22.4659C152.331 22.4659 152.041 22.5319 151.79 22.6641C151.543 22.7962 151.351 22.99 151.215 23.2457C151.078 23.5014 151.01 23.8125 151.01 24.179H147.635C147.635 23.2585 147.842 22.4659 148.255 21.8011C148.669 21.1364 149.252 20.625 150.007 20.267C150.761 19.9091 151.645 19.7301 152.659 19.7301C153.708 19.7301 154.615 19.8984 155.382 20.2351C156.154 20.5675 156.748 21.0362 157.166 21.6413C157.588 22.2464 157.798 22.956 157.798 23.7699C157.798 24.2727 157.694 24.7734 157.485 25.272C157.276 25.7663 156.901 26.3139 156.36 26.9148C155.819 27.5156 155.05 28.2315 154.053 29.0625L152.825 30.0852V30.1619H157.939V33H147.891Z" fill="#028AF3"/>
<path d="M165.229 33.3579C164.04 33.3537 163.013 33.0788 162.148 32.5334C161.283 31.9879 160.616 31.2017 160.148 30.1747C159.679 29.1477 159.447 27.9162 159.451 26.4801C159.455 25.0398 159.689 23.8168 160.154 22.8111C160.623 21.8054 161.287 21.0405 162.148 20.5163C163.013 19.9922 164.04 19.7301 165.229 19.7301C166.418 19.7301 167.445 19.9943 168.31 20.5227C169.175 21.0469 169.842 21.8118 170.311 22.8175C170.78 23.8231 171.012 25.044 171.008 26.4801C171.008 27.9247 170.773 29.1605 170.305 30.1875C169.836 31.2145 169.169 32.0007 168.304 32.5462C167.443 33.0873 166.418 33.3579 165.229 33.3579ZM165.229 30.4687C165.843 30.4687 166.346 30.1491 166.738 29.5099C167.134 28.8665 167.33 27.8565 167.326 26.4801C167.326 25.581 167.236 24.8459 167.057 24.2748C166.878 23.7038 166.631 23.2819 166.316 23.0092C166.001 22.7322 165.638 22.5937 165.229 22.5937C164.616 22.5937 164.115 22.9048 163.727 23.527C163.339 24.1491 163.141 25.1335 163.133 26.4801C163.128 27.3963 163.216 28.1506 163.395 28.7429C163.574 29.331 163.821 29.7656 164.136 30.0469C164.456 30.3281 164.82 30.4687 165.229 30.4687Z" fill="#028AF3"/>
<path d="M177.79 33.179C176.758 33.179 175.842 33.0021 175.041 32.6484C174.244 32.2905 173.618 31.7983 173.162 31.1719C172.706 30.5454 172.476 29.8253 172.471 29.0114H176.051C176.055 29.2628 176.132 29.4886 176.281 29.6889C176.434 29.8849 176.643 30.0383 176.907 30.1491C177.172 30.2599 177.474 30.3153 177.815 30.3153C178.143 30.3153 178.433 30.2578 178.684 30.1427C178.936 30.0234 179.132 29.8594 179.273 29.6506C179.413 29.4418 179.481 29.2031 179.477 28.9346C179.481 28.6704 179.4 28.4361 179.234 28.2315C179.072 28.027 178.844 27.8672 178.55 27.7521C178.256 27.6371 177.917 27.5795 177.534 27.5795H176.204V25.125H177.534C177.888 25.125 178.199 25.0675 178.467 24.9524C178.74 24.8373 178.951 24.6775 179.1 24.473C179.253 24.2685 179.328 24.0341 179.324 23.7699C179.328 23.5142 179.266 23.2883 179.138 23.0923C179.01 22.8963 178.831 22.7429 178.601 22.6321C178.376 22.5213 178.113 22.4659 177.815 22.4659C177.491 22.4659 177.202 22.5234 176.946 22.6385C176.694 22.7535 176.496 22.9133 176.351 23.1179C176.206 23.3224 176.132 23.5568 176.128 23.821H172.727C172.731 23.0199 172.951 22.3125 173.385 21.6989C173.824 21.0852 174.425 20.6037 175.188 20.2543C175.951 19.9048 176.827 19.7301 177.815 19.7301C178.783 19.7301 179.637 19.8942 180.378 20.2223C181.124 20.5504 181.706 21.0021 182.123 21.5774C182.545 22.1484 182.754 22.8025 182.75 23.5398C182.758 24.2727 182.507 24.8736 181.996 25.3423C181.488 25.8111 180.845 26.0881 180.065 26.1733V26.2756C181.122 26.3906 181.917 26.7145 182.449 27.2471C182.982 27.7756 183.244 28.4403 183.236 29.2415C183.24 30.0085 183.01 30.6882 182.545 31.2805C182.085 31.8729 181.444 32.3373 180.621 32.674C179.803 33.0106 178.859 33.179 177.79 33.179Z" fill="#028AF3"/>
<path d="M190.524 33.3579C189.335 33.3537 188.308 33.0788 187.443 32.5334C186.578 31.9879 185.911 31.2017 185.442 30.1747C184.974 29.1477 184.741 27.9162 184.746 26.4801C184.75 25.0398 184.984 23.8168 185.449 22.8111C185.918 21.8054 186.582 21.0405 187.443 20.5163C188.308 19.9922 189.335 19.7301 190.524 19.7301C191.713 19.7301 192.74 19.9943 193.605 20.5227C194.47 21.0469 195.137 21.8118 195.606 22.8175C196.075 23.8231 196.307 25.044 196.303 26.4801C196.303 27.9247 196.068 29.1605 195.599 30.1875C195.131 31.2145 194.464 32.0007 193.599 32.5462C192.738 33.0873 191.713 33.3579 190.524 33.3579ZM190.524 30.4687C191.138 30.4687 191.641 30.1491 192.033 29.5099C192.429 28.8665 192.625 27.8565 192.621 26.4801C192.621 25.581 192.531 24.8459 192.352 24.2748C192.173 23.7038 191.926 23.2819 191.611 23.0092C191.295 22.7322 190.933 22.5937 190.524 22.5937C189.911 22.5937 189.41 22.9048 189.022 23.527C188.634 24.1491 188.436 25.1335 188.428 26.4801C188.423 27.3963 188.511 28.1506 188.69 28.7429C188.869 29.331 189.116 29.7656 189.431 30.0469C189.751 30.3281 190.115 30.4687 190.524 30.4687Z" fill="#028AF3"/>
</svg>
