<svg width="48" height="48" viewBox="0 0 48 48" fill="none" xmlns="http://www.w3.org/2000/svg">
<path fill-rule="evenodd" clip-rule="evenodd" d="M16 18C16 16.8954 16.8954 16 18 16C19.1046 16 20 16.8954 20 18C20 19.1046 19.1046 20 18 20C16.8954 20 16 19.1046 16 18ZM16 24C16 22.8954 16.8954 22 18 22C19.1046 22 20 22.8954 20 24C20 25.1046 19.1046 26 18 26C16.8954 26 16 25.1046 16 24ZM18 28C16.8954 28 16 28.8954 16 30C16 31.1046 16.8954 32 18 32C19.1046 32 20 31.1046 20 30C20 28.8954 19.1046 28 18 28ZM22 18C22 16.8954 22.8954 16 24 16C25.1046 16 26 16.8954 26 18C26 19.1046 25.1046 20 24 20C22.8954 20 22 19.1046 22 18ZM24 22C22.8954 22 22 22.8954 22 24C22 25.1046 22.8954 26 24 26C25.1046 26 26 25.1046 26 24C26 22.8954 25.1046 22 24 22ZM22 30C22 28.8954 22.8954 28 24 28C25.1046 28 26 28.8954 26 30C26 31.1046 25.1046 32 24 32C22.8954 32 22 31.1046 22 30ZM30 16C28.8954 16 28 16.8954 28 18C28 19.1046 28.8954 20 30 20C31.1046 20 32 19.1046 32 18C32 16.8954 31.1046 16 30 16ZM28 24C28 22.8954 28.8954 22 30 22C31.1046 22 32 22.8954 32 24C32 25.1046 31.1046 26 30 26C28.8954 26 28 25.1046 28 24ZM30 28C28.8954 28 28 28.8954 28 30C28 31.1046 28.8954 32 30 32C31.1046 32 32 31.1046 32 30C32 28.8954 31.1046 28 30 28Z" fill="#A6AFB6"/>
</svg>
